# xmcd
#
# Track frame offsets:
#	150
#	17496
#	37909
#	56081
#	78071
#	92505
#	119827
#	138395
#	163070
#	191864
#
# Disc length: 2718 seconds
#
# Revision: 0
# Processed by: cddbd v1.5.2PL0 Copyright (c) Steve Scherf et al.
# Submitted via: audiograbber 1.83.01
#
DISCID=7e0a9c0a
DTITLE=Tianiela - Weedy Mine
DYEAR=2006
DGENRE=
TTITLE0=Dependence Song
TTITLE1=I Am Young
TTITLE2=Moving Up
TTITLE3=My Fool
TTITLE4=Extroverted Interlude
TTITLE5=Soul Sista
TTITLE6=Oh Lady
TTITLE7=No Keys
TTITLE8=Weedy Mine
TTITLE9=Introverted Ending
EXTD=
EXTT0=
EXTT1=
EXTT2=
EXTT3=
EXTT4=
EXTT5=
EXTT6=
EXTT7=
EXTT8=
EXTT9=
PLAYORDER=
